<svg xmlns="http://www.w3.org/2000/svg" width="13.027" height="13.002" viewBox="0 0 13.027 13.002">
  <g id="Group_2207" data-name="Group 2207" transform="translate(0.212 0.2)">
    <path id="Path_716" data-name="Path 716" d="M386.888,67.151h-2.625a.263.263,0,0,1,0-.525h2.363V64.263a.263.263,0,1,1,.525,0v2.625A.263.263,0,0,1,386.888,67.151Z" transform="translate(-374.548 -62.425)" fill="#0032a0" stroke="#0032a0" stroke-width="0.4"/>
    <path id="Path_717" data-name="Path 717" d="M.263,323.151A.263.263,0,0,1,0,322.888v-2.626A.263.263,0,0,1,.263,320H2.888a.263.263,0,0,1,0,.525H.525v2.363A.263.263,0,0,1,.263,323.151Z" transform="translate(0 -312.124)" fill="#0032a0" stroke="#0032a0" stroke-width="0.4"/>
    <path id="Path_718" data-name="Path 718" d="M2.395,5.776l-.034,0a.264.264,0,0,1-.227-.295A6.308,6.308,0,0,1,8.381,0,6.651,6.651,0,0,1,14.67,4.384a.263.263,0,1,1-.5.159A6.114,6.114,0,0,0,8.381.525,5.782,5.782,0,0,0,2.655,5.547a.263.263,0,0,1-.26.229Z" transform="translate(-2.079)" fill="#0032a0" stroke="#0032a0" stroke-width="0.4"/>
    <path id="Path_719" data-name="Path 719" d="M6.3,283.128a6.64,6.64,0,0,1-6.289-4.384.262.262,0,1,1,.5-.158A6.1,6.1,0,0,0,6.3,282.6a5.782,5.782,0,0,0,5.726-5.022.263.263,0,0,1,.521.068A6.309,6.309,0,0,1,6.3,283.128Z" transform="translate(0.006 -270.525)" fill="#0032a0" stroke="#0032a0" stroke-width="0.4"/>
  </g>
</svg>
